Coordinates
version=1
nRows=30
nColumns=33
inDegrees=yes

Units are S.I. units (second, meters, Newtons, ...)
Angles are in degrees.

endheader
time	ground_thorax_rot_x	ground_thorax_rot_y	ground_thorax_rot_z	ground_thorax_tx	ground_thorax_ty	ground_thorax_tz	clav_prot_r	clav_elev_r	scapula_abduction_r	scapula_elevation_r	scapula_upward_rot_r	scapula_winging_r	shoulder_elv_r	plane_of_elev_r	axial_rot_r	elbow_flexion_r	pro_sup_r	wrist_flex_r	wrist_dev_r	clav_prot_l	clav_elev_l	scapula_abduction_l	scapula_elevation_l	scapula_upward_rot_l	scapula_winging_l	shoulder_elv_l	plane_of_elev_l	axial_rot_l	elbow_flexion_l	pro_sup_l	wrist_flex_l	wrist_dev_l	
5.2300	25.025176	33.201574	48.420101	48.247872	762.115480	-32.865385	12.552178	35.872102	25.655228	45.000000	-45.000000	-2956.617977	-4969.865695	21.827560	180.000000	1085.158041	180.722002	11.408404	13.178005	-15.293639	-45.000000	-32.430934	45.000000	-45.000000	-982.581652	-1175.752237	137.216495	-135.593554	1789.314142	41.067920	12.573234	-12.816150	
5.2400	25.101954	33.186069	48.196189	47.538911	761.879269	-32.728854	12.499563	35.846205	25.611842	45.000000	-45.000000	-2956.672012	-4969.837500	21.881887	180.000000	1085.214872	180.613198	11.461664	13.203781	-15.216035	-45.000000	-32.460692	45.000000	-45.000000	-982.521279	-1175.712358	137.190295	-135.642807	1789.239601	40.815918	12.601871	-12.843301	
5.2500	25.177413	33.168381	47.972485	46.788055	761.657690	-32.591889	12.392302	35.809490	25.584666	45.000000	-45.000000	-2956.728130	-4969.817552	21.923597	180.000000	1085.286128	180.495923	11.534857	13.234719	-15.106454	-45.000000	-32.494292	45.000000	-45.000000	-982.444980	-1175.671714	137.151291	-135.687613	1789.152131	40.553078	12.603032	-12.909476	
5.2600	25.248587	33.152787	47.754636	45.946677	761.469805	-32.454513	12.366274	35.786967	25.565073	45.000000	-45.000000	-2956.793236	-4969.796082	21.951623	180.000000	1085.331096	180.349541	11.578640	13.260673	-15.040474	-45.000000	-32.533439	45.000000	-45.000000	-982.381507	-1175.628492	137.139601	-135.719763	1789.082020	40.264493	12.621838	-12.930767	
5.2700	25.317111	33.137469	47.538754	45.007759	761.315900	-32.315906	12.369415	35.772455	25.554958	45.000000	-45.000000	-2956.865822	-4969.774643	21.970446	180.000000	1085.367052	180.188617	11.606710	13.285011	-14.990007	-45.000000	-32.577460	45.000000	-45.000000	-982.317525	-1175.583165	137.139095	-135.740574	1789.021472	39.961932	12.646602	-12.933073	
5.2800	25.390482	33.114645	47.313238	43.957728	761.199067	-32.175176	12.385751	35.759316	25.558471	45.000000	-45.000000	-2956.944685	-4969.753924	21.985072	180.000000	1085.398807	180.023263	11.633610	13.310081	-14.942417	-45.000000	-32.620064	45.000000	-45.000000	-982.245983	-1175.532215	137.134689	-135.754709	1788.958165	39.653338	12.665342	-12.940307	
5.2900	25.465046	33.088034	47.079244	42.793916	761.117903	-32.031226	12.408605	35.753916	25.563755	45.000000	-45.000000	-2957.029974	-4969.731975	22.003750	180.000000	1085.426129	179.874873	11.651248	13.333022	-14.899159	-45.000000	-32.665668	45.000000	-45.000000	-982.169533	-1175.477307	137.128959	-135.764816	1788.899550	39.359107	12.690147	-12.937702	
5.3000	25.542349	33.054303	46.833594	41.518469	761.069661	-31.883163	12.416139	35.747030	25.568691	45.000000	-45.000000	-2957.116786	-4969.706239	22.027427	180.000000	1085.453406	179.761190	11.676993	13.355276	-14.842103	-45.000000	-32.709059	45.000000	-45.000000	-982.083625	-1175.413974	137.112274	-135.777972	1788.833584	39.090060	12.703564	-12.957367	
5.3100	25.620913	33.015722	46.579082	40.133205	761.052683	-31.730661	12.419335	35.745506	25.574587	45.000000	-45.000000	-2957.210120	-4969.679857	22.055729	180.000000	1085.476353	179.697945	11.702795	13.372544	-14.783699	-45.000000	-32.757163	45.000000	-45.000000	-981.992032	-1175.349546	137.093906	-135.798207	1788.774910	38.859385	12.721986	-12.973293	
5.3200	25.696164	32.971615	46.322151	38.640129	761.066114	-31.574318	12.415772	35.747273	25.569868	45.000000	-45.000000	-2957.300697	-4969.644128	22.089768	180.000000	1085.495456	179.693917	11.732764	13.387689	-14.717803	-45.000000	-32.802162	45.000000	-45.000000	-981.898065	-1175.273907	137.075301	-135.830434	1788.712447	38.668251	12.732822	-13.008370	
5.3300	25.765661	32.929618	46.068519	37.041228	761.109475	-31.415795	12.411097	35.751034	25.565193	45.000000	-45.000000	-2957.396473	-4969.606865	22.118670	180.000000	1085.512939	179.754867	11.762222	13.393666	-14.649707	-45.000000	-32.860704	45.000000	-45.000000	-981.803172	-1175.205070	137.069999	-135.878465	1788.668416	38.520355	12.748290	-13.033447	
5.3400	25.827075	32.888067	45.824947	35.339372	761.182223	-31.257948	12.403030	35.756830	25.555292	45.000000	-45.000000	-2957.491497	-4969.560192	22.141605	180.000000	1085.528402	179.881490	11.793387	13.398038	-14.577253	-45.000000	-32.923441	45.000000	-45.000000	-981.705950	-1175.134084	137.077095	-135.943781	1788.632759	38.410900	12.755803	-13.073882	
5.3500	25.892946	32.842627	45.575093	33.537907	761.283467	-31.104581	12.386092	35.756712	25.560186	45.000000	-45.000000	-2957.597281	-4969.519000	22.157472	180.000000	1085.547224	180.070305	11.836355	13.397523	-14.498516	-45.000000	-32.997691	45.000000	-45.000000	-981.599993	-1175.077120	137.087202	-136.032042	1788.616671	38.342685	12.763726	-13.111166	
5.3600	25.956316	32.793361	45.325551	31.641022	761.411874	-30.960150	12.366405	35.760916	25.554970	45.000000	-45.000000	-2957.704098	-4969.471207	22.176002	180.000000	1085.559656	180.317197	11.881972	13.405035	-14.420156	-45.000000	-33.068866	45.000000	-45.000000	-981.491396	-1175.012513	137.097786	-136.142710	1788.599610	38.314316	12.764857	-13.167635	
5.3700	26.025827	32.739659	45.063067	29.652909	761.565857	-30.829275	12.344145	35.751353	25.556741	45.000000	-45.000000	-2957.821536	-4969.432176	22.192097	180.000000	1085.570504	180.611969	11.943206	13.407190	-14.335073	-45.000000	-33.150721	45.000000	-45.000000	-981.377473	-1174.960222	137.108614	-136.280203	1788.602520	38.326856	12.767864	-13.214145	
5.3800	26.085973	32.686260	44.810005	27.578037	761.743904	-30.716366	12.327071	35.739775	25.545397	45.000000	-45.000000	-2957.937354	-4969.388572	22.202776	180.000000	1085.571733	180.948923	12.007771	13.417698	-14.248586	-45.000000	-33.233005	45.000000	-45.000000	-981.261369	-1174.898764	137.128415	-136.438593	1788.610192	38.373381	12.761266	-13.279130	
5.3900	26.147504	32.629015	44.550998	25.420263	761.944955	-30.625245	12.312859	35.719517	25.533188	45.000000	-45.000000	-2958.057484	-4969.350082	22.210602	180.000000	1085.573106	181.316746	12.081223	13.429949	-14.155234	-45.000000	-33.319761	45.000000	-45.000000	-981.139286	-1174.839221	137.150719	-136.615584	1788.636260	38.450113	12.755410	-13.341245	
5.4000	26.205047	32.567723	44.295300	23.182817	762.168648	-30.558965	12.305757	35.704914	25.504687	45.000000	-45.000000	-2958.170854	-4969.302632	22.219967	180.000000	1085.572108	181.707163	12.148152	13.462189	-14.062233	-45.000000	-33.398433	45.000000	-45.000000	-981.011560	-1174.761319	137.172680	-136.803263	1788.656138	38.547552	12.742229	-13.427405	
5.4100	26.275901	32.495693	44.019337	20.868097	762.415383	-30.519742	12.302751	35.684002	25.471968	45.000000	-45.000000	-2958.285294	-4969.253795	22.238300	180.000000	1085.578573	182.106852	12.216945	13.500302	-13.964744	-45.000000	-33.475998	45.000000	-45.000000	-980.878411	-1174.684146	137.186598	-137.000654	1788.684185	38.661033	12.733515	-13.508169	
5.4200	26.351266	32.415473	43.737700	18.477905	762.686275	-30.509025	12.304868	35.663895	25.431920	45.000000	-45.000000	-2958.397499	-4969.199021	22.257772	180.000000	1085.584444	182.509478	12.279019	13.557571	-13.868125	-45.000000	-33.547655	45.000000	-45.000000	-980.737867	-1174.596941	137.192166	-137.201850	1788.703202	38.781918	12.720199	-13.605268	
5.4300	26.438402	32.324971	43.436596	16.013593	762.982968	-30.527577	12.308988	35.642440	25.383728	45.000000	-45.000000	-2958.512742	-4969.142587	22.286541	180.000000	1085.592367	182.906352	12.341745	13.618334	-13.769851	-45.000000	-33.619758	45.000000	-45.000000	-980.597604	-1174.509701	137.189899	-137.403330	1788.724935	38.906701	12.710443	-13.695773	
5.4400	26.528338	32.226063	43.130038	13.476252	763.307489	-30.575543	12.314067	35.616231	25.332356	45.000000	-45.000000	-2958.628691	-4969.084450	22.314022	180.000000	1085.598051	183.295868	12.400316	13.692924	-13.668464	-45.000000	-33.689491	45.000000	-45.000000	-980.451160	-1174.414865	137.177790	-137.599364	1788.737437	39.029837	12.696553	-13.793454	
5.4500	26.616624	32.124524	42.821776	10.867426	763.662059	-30.652508	12.322008	35.585133	25.271993	45.000000	-45.000000	-2958.744505	-4969.027197	22.337625	180.000000	1085.605967	183.675262	12.463052	13.753936	-13.562837	-45.000000	-33.773373	45.000000	-45.000000	-980.314391	-1174.326285	137.181580	-137.786695	1788.765676	39.148675	12.680752	-13.876035	
5.4600	26.690807	32.024837	42.532935	8.189191	764.049111	-30.757459	12.329247	35.544425	25.215330	45.000000	-45.000000	-2958.858613	-4968.975217	22.339096	180.000000	1085.617553	184.048899	12.523163	13.817581	-13.448163	-45.000000	-33.865149	45.000000	-45.000000	-980.171789	-1174.232415	137.196894	-137.957131	1788.803435	39.258676	12.654226	-13.962642	
5.4700	26.758638	31.925395	42.254182	5.444608	764.471272	-30.888795	12.333049	35.508344	25.153792	45.000000	-45.000000	-2958.971262	-4968.924914	22.330666	180.000000	1085.635206	184.414847	12.582768	13.872352	-13.327190	-45.000000	-33.971121	45.000000	-45.000000	-980.033530	-1174.137371	137.234055	-138.107971	1788.857732	39.358416	12.622764	-14.041930	
5.4800	26.830952	31.816518	41.975042	2.637697	764.931514	-31.044335	12.328778	35.467937	25.099495	45.000000	-45.000000	-2959.084988	-4968.876634	22.316622	180.000000	1085.657948	184.770734	12.637326	13.937316	-13.198523	-45.000000	-34.075158	45.000000	-45.000000	-979.882279	-1174.032308	137.263529	-138.238368	1788.908551	39.447267	12.586989	-14.124021	
5.4900	26.913144	31.699499	41.686583	-0.226162	765.433112	-31.221416	12.323254	35.433738	25.035629	45.000000	-45.000000	-2959.199120	-4968.822644	22.309777	180.000000	1085.682263	185.109362	12.690416	13.995304	-13.068471	-45.000000	-34.186681	45.000000	-45.000000	-979.737523	-1173.926152	137.299550	-138.356644	1788.960601	39.525948	12.552403	-14.195193	
5.5000	27.005888	31.572732	41.389404	-3.140603	765.979714	-31.417057	12.314074	35.394559	24.973748	45.000000	-45.000000	-2959.318811	-4968.767227	22.304751	180.000000	1085.704149	185.427670	12.739298	14.062083	-12.935289	-45.000000	-34.293559	45.000000	-45.000000	-979.584666	-1173.810869	137.319600	-138.463638	1789.001541	39.594202	12.517484	-14.266613	
5.5100	27.111297	31.436569	41.080534	-6.098447	766.575150	-31.628183	12.305124	35.360180	24.904254	45.000000	-45.000000	-2959.443209	-4968.704340	22.311022	180.000000	1085.723013	185.721024	12.786653	14.124367	-12.802043	-45.000000	-34.404501	45.000000	-45.000000	-979.436909	-1173.694939	137.337836	-138.565578	1789.037108	39.652784	12.488150	-14.327498	
5.5200	27.228102	31.291046	40.760626	-9.092296	767.223303	-31.851868	12.294926	35.322342	24.834525	45.000000	-45.000000	-2959.574047	-4968.637619	22.323524	180.000000	1085.738995	185.989496	12.829614	14.191789	-12.667934	-45.000000	-34.511788	45.000000	-45.000000	-979.285088	-1173.573966	137.339071	-138.659716	1789.061377	39.701286	12.461932	-14.387735	
